<svg height="512pt" viewBox="0 0 512.06557 512" width="512pt" xmlns="http://www.w3.org/2000/svg"><path d="m504.066406 256.03125c0 136.96875-111.035156 248-248 248-136.96875 0-248-111.03125-248-248 0-136.964844 111.03125-248 248-248 136.964844 0 248 111.035156 248 248zm0 0" fill="#9fa8da"/><path d="m504.066406 192.03125c-.007812-55.355469-43.375-101.003906-98.660156-103.847656-55.28125-2.84375-103.101562 38.113281-108.789062 93.175781-5.6875 55.066406 32.75 104.933594 87.449218 113.449219v49.222656h32v-49.222656c50.652344-7.886719 88.003906-51.511719 88-102.777344zm0 0" fill="#cfd8dc"/><path d="m368.066406 344.03125h64v160h-64zm0 0" fill="#ff8a65"/><path d="m472.066406 192.03125c0 39.765625-32.238281 72-72 72-39.765625 0-72-32.234375-72-72 0-39.761719 32.234375-72 72-72 39.761719 0 72 32.238281 72 72zm0 0" fill="#ffe082"/><path d="m232.066406 360.03125h-96c-13.257812 0-24-10.742188-24-24v-.597656c-.027344-6.195313 2.414063-12.140625 6.78125-16.53125 4.367188-4.390625 10.304688-6.863282 16.496094-6.871094h36.722656c13.253906 0 24-10.742188 24-24 0-13.253906-10.746094-24-24-24h-16c-11.046875 0-20-8.953125-20-20 0-11.042969-8.957031-20-20-20h-12c-17.675781 0-32-14.324219-32-32 0-17.671875 14.324219-32 32-32h15.453125c6.507813.03125 12.753907-2.535156 17.359375-7.125 4.609375-4.59375 7.195313-10.832031 7.1875-17.335938-.253906-13.074218-10.925781-23.539062-24-23.539062h-65.929687c-65.792969 92.277344-60.664063 217.417969 12.464843 304h165.464844c15.460938 0 28-12.535156 28-28 0-15.460938-12.539062-28-28-28zm0 0" fill="#ffe082"/><g fill="#fff"><path d="m216.066406 112.03125h64v16h-64zm0 0"/><path d="m160.066406 160.03125h112v16h-112zm0 0"/><path d="m192.066406 208.03125h80v16h-80zm0 0"/><path d="m216.066406 256.03125h64v16h-64zm0 0"/><path d="m354.40625 202.371094 32-32.003906 11.316406 11.316406-32 32zm0 0"/><path d="m402.414062 202.371094 32-32 11.3125 11.316406-32 32zm0 0"/></g><path d="m400.066406 112.03125c-44.183594 0-80 35.820312-80 80 0 44.183594 35.816406 80 80 80 44.179688 0 80-35.816406 80-80-.050781-44.160156-35.839844-79.949219-80-80zm0 144c-35.347656 0-64-28.652344-64-64 0-35.34375 28.652344-64 64-64 35.34375 0 64 28.65625 64 64-.042968 35.332031-28.671875 63.960938-64 64zm0 0"/><path d="m512.066406 192.03125c-.027344-40.71875-22.15625-78.214844-57.785156-97.925781-75.320312-92.226563-204.28125-120.347657-311.15625-67.84375-106.875 52.503906-163.441406 171.761719-136.472656 287.746093 26.964844 115.980469 130.335937 198.054688 249.414062 198.023438 35.835938.085938 71.285156-7.4375 104-22.070312v22.070312h80v-78.109375c46.308594-47.621094 72.148438-111.464844 72-177.890625-.019531-13.023438-1.023437-26.027344-3-38.902344 1.960938-8.222656 2.96875-16.644531 3-25.097656zm-441.601562 216c-67.820313-82.5625-72.71875-200.078125-12-288h61.601562c8.699219.042969 15.785156 6.992188 16 15.691406.054688 4.214844-1.59375 8.273438-4.578125 11.253906-3.160156 3.222657-7.484375 5.046876-12 5.054688h-15.421875c-22.09375 0-40 17.910156-40 40 0 22.09375 17.90625 40 40 40h12c6.625 0 12 5.375 12 12 0 15.464844 12.535156 28 28 28h16c8.835938 0 16 7.164062 16 16 0 8.839844-7.164062 16-16 16h-36.722656c-8.402344.0625-16.429688 3.476562-22.304688 9.484375s-9.105468 14.117187-8.972656 22.515625c0 17.675781 14.324219 32 32 32h96c11.042969 0 20 8.957031 20 20 0 11.046875-8.957031 20-20 20zm289.601562 64.25c-92.585937 44.628906-203.320312 25.214844-275.203125-48.25h147.203125c19.878906 0 36-16.117188 36-36 0-19.878906-16.121094-36-36-36h-96c-4.335937-.039062-8.476562-1.820312-11.484375-4.941406-3.011719-3.121094-4.636719-7.324219-4.515625-11.65625-.027344-8.46875 6.808594-15.359375 15.277344-15.402344h36.722656c17.671875 0 32-14.324219 32-32 0-17.671875-14.328125-32-32-32h-16c-6.628906 0-12-5.371094-12-12 0-15.460938-12.539062-28-28-28h-12c-13.257812 0-24-10.742188-24-24 0-13.253906 10.742188-24 24-24h15.460938c8.792968-.035156 17.210937-3.578125 23.378906-9.847656 6.007812-6.035156 9.3125-14.25 9.160156-22.765625-.425781-17.394531-14.601562-31.300781-32-31.386719h-49.601562c42.222656-51.660156 104.066406-83.386719 170.65625-87.542969 66.589844-4.160156 131.902344 19.625 180.222656 65.632813-59.941406-11.105469-117.757812 27.777344-130.085938 87.480468-12.324218 59.707032 25.367188 118.304688 84.808594 131.847657v34.582031h-16zm64 23.75h-48v-144h48zm16-85.984375v-74.015625h-16v-34.582031c29.988282-6.742188 55.914063-25.464844 71.742188-51.816407.0625 2.144532.257812 4.296876.257812 6.398438.132813 56.347656-19.710937 110.917969-56 154.015625zm-25.226562-123.148437-6.773438 1.046874v48.085938h-16v-48.085938l-6.777344-1.046874c-49.546874-7.71875-84.808593-52.273438-80.9375-102.269532 3.871094-49.992187 45.566407-88.589844 95.714844-88.589844 50.144532 0 91.839844 38.597657 95.710938 88.589844 3.871094 49.996094-31.390625 94.550782-80.9375 102.269532zm0 0"/></svg>