<?xml version="1.0"?>
<svg xmlns="http://www.w3.org/2000/svg" height="512px" viewBox="0 -26 512.0015 512" width="512px"><g><g fill="#020202"><path d="m266 40v-30c0-5.523438-4.476562-10-10-10s-10 4.476562-10 10v30c0 5.523438 4.476562 10 10 10s10-4.476562 10-10zm0 0" data-original="#020202" class="active-path" data-old_color="#020202" fill="#E9664A"/><path d="m266 450v-30c0-5.523438-4.476562-10-10-10s-10 4.476562-10 10v30c0 5.523438 4.476562 10 10 10s10-4.476562 10-10zm0 0" data-original="#020202" class="active-path" data-old_color="#020202" fill="#E9664A"/><path d="m141 30.808594c-4.78125 2.761718-6.421875 8.878906-3.660156 13.660156l15 25.992188c2.773437 4.808593 8.898437 6.410156 13.660156 3.660156 4.78125-2.757813 6.421875-8.875 3.660156-13.660156l-15-25.988282c-2.757812-4.785156-8.875-6.421875-13.660156-3.664062zm0 0" data-original="#020202" class="active-path" data-old_color="#020202" fill="#E9664A"/><path d="m371 429.191406c4.785156-2.761718 6.421875-8.875 3.664062-13.660156l-15-25.988281c-2.761718-4.785157-8.878906-6.425781-13.660156-3.664063-4.785156 2.761719-6.425781 8.875-3.664062 13.660156l15 25.988282c2.773437 4.808594 8.898437 6.410156 13.660156 3.664062zm0 0" data-original="#020202" class="active-path" data-old_color="#020202" fill="#E9664A"/><path d="m357.339844 34.472656-15 25.988282c-2.761719 4.785156-1.121094 10.902343 3.664062 13.660156 4.8125 2.78125 10.914063 1.09375 13.660156-3.660156l15-25.992188c2.757813-4.78125 1.121094-10.898438-3.664062-13.660156-4.785156-2.757813-10.898438-1.121094-13.660156 3.664062zm0 0" data-original="#020202" class="active-path" data-old_color="#020202" fill="#E9664A"/><path d="m154.660156 425.527344 15-25.988282c2.761719-4.785156 1.121094-10.898437-3.660156-13.660156-4.785156-2.761718-10.898438-1.121094-13.660156 3.664063l-15 25.988281c-2.761719 4.785156-1.121094 10.898438 3.660156 13.660156 4.8125 2.777344 10.917969 1.089844 13.660156-3.664062zm0 0" data-original="#020202" class="active-path" data-old_color="#020202" fill="#E9664A"/><path d="m296 180c0-22.054688-17.941406-40-40-40-22.054688 0-40 17.945312-40 40 0 22.058594 17.945312 40 40 40 22.058594 0 40-17.941406 40-40zm-40 20c-11.027344 0-20-8.972656-20-20s8.972656-20 20-20 20 8.972656 20 20-8.972656 20-20 20zm0 0" data-original="#020202" class="active-path" data-old_color="#020202" fill="#E9664A"/><path d="m196 280v10c0 5.523438 4.476562 10 10 10h100c5.523438 0 10-4.476562 10-10v-10c0-33.082031-26.914062-60-60-60-33.082031 0-60 26.917969-60 60zm60-40c22.058594 0 40 17.945312 40 40h-80c0-22.054688 17.945312-40 40-40zm0 0" data-original="#020202" class="active-path" data-old_color="#020202" fill="#E9664A"/><path d="m266 110c0 5.523438-4.476562 10-10 10s-10-4.476562-10-10 4.476562-10 10-10 10 4.476562 10 10zm0 0" data-original="#020202" class="active-path" data-old_color="#020202" fill="#E9664A"/><path d="m302.675781 104.570312c-2.683593-.519531-5.464843.085938-7.691406 1.675782-4.761719 3.394531-4.097656 8.59375-4.667969 10.746094-.65625 4.578124 1.914063 9.007812 6.210938 10.710937 42.203125 16.734375 69.472656 56.890625 69.472656 102.296875 0 60.65625-49.34375 110-110 110-60.652344 0-110-49.34375-110-110 0-45.40625 27.269531-85.5625 69.476562-102.296875 4.296876-1.703125 6.867188-6.132813 6.210938-10.710937-.585938-2.203126.109375-7.339844-4.667969-10.746094-2.226562-1.585938-5.007812-2.191406-7.695312-1.675782-80.574219 15.492188-164.195313 73.726563-206.589844 118.558594-3.644531 3.855469-3.644531 9.886719 0 13.742188 57.359375 60.65625 160.046875 123.128906 253.265625 123.128906 93.628906 0 196.472656-63.074219 253.269531-123.128906 3.644531-3.855469 3.644531-9.886719 0-13.742188-36.484375-38.582031-119.402343-101.792968-206.59375-118.558594zm-278.464843 125.441407c18.394531-17.566407 71.578124-64.605469 139.03125-91.121094-23.308594 23.773437-37.242188 55.976563-37.242188 91.109375 0 35.449219 14.257812 67.625 37.34375 91.097656-50.757812-19.859375-100.890625-54.457031-139.132812-91.085937zm324.417968 91.117187c23.101563-23.480468 37.371094-55.667968 37.371094-91.128906 0-35.101562-13.914062-67.316406-37.242188-91.109375 67.445313 26.511719 120.628907 73.542969 139.023438 91.113281-18.390625 17.574219-71.5625 64.601563-139.152344 91.125zm0 0" data-original="#020202" class="active-path" data-old_color="#020202" fill="#E9664A"/></g></g> </svg>
